<?xml version="1.0" standalone="no"?><!DOCTYPE svg PUBLIC "-//W3C//DTD SVG 1.1//EN" "http://www.w3.org/Graphics/SVG/1.1/DTD/svg11.dtd"><svg t="1590377761353" class="icon" viewBox="0 0 1079 1024" version="1.1" xmlns="http://www.w3.org/2000/svg" p-id="1219" xmlns:xlink="http://www.w3.org/1999/xlink" width="33.71875" height="14"><defs><style type="text/css"></style></defs><path d="M576.507473 512l-499.905511 499.905512c-16.125984 16.125984-48.377953 16.125984-64.503937 0-16.125984-16.125984-16.125984-48.377953 0-64.503937l435.401574-435.401575L12.098025 76.598425C-4.02796 60.472441-4.02796 28.220472 12.098025 12.094488s48.377953-16.125984 64.503937 0l499.905511 499.905512z" fill="#999" p-id="1220"></path><path d="M1076.412985 512l-499.905512 499.905512c-16.125984 16.125984-48.377953 16.125984-64.503937 0-16.125984-16.125984-16.125984-48.377953 0-64.503937l435.401575-435.401575-430.026247-435.401575c-16.125984-16.125984-16.125984-48.377953 0-64.503937 16.125984-16.125984 48.377953-16.125984 64.503937 0L1076.412985 512z" fill="#999" p-id="1221"></path></svg>